<svg width="20" height="20" viewBox="0 0 41 41" fill="none" xmlns="http://www.w3.org/2000/svg">
<path d="M24.1333 21L40.3333 37.2C40.6974 37.6251 40.8876 38.1719 40.866 38.7312C40.8444 39.2905 40.6126 39.821 40.2168 40.2168C39.821 40.6126 39.2905 40.8444 38.7312 40.866C38.1719 40.8876 37.6251 40.6974 37.2 40.3333L21 24.1333L4.8 40.3555C4.37488 40.7196 3.82805 40.9098 3.26877 40.8882C2.70949 40.8666 2.17895 40.6348 1.78319 40.239C1.38742 39.8433 1.15557 39.3127 1.13397 38.7534C1.11237 38.1942 1.3026 37.6473 1.66666 37.2222L17.8667 21L1.64444 4.79999C1.41181 4.60077 1.22288 4.35562 1.08949 4.07992C0.95611 3.80422 0.881153 3.50393 0.869332 3.19788C0.857511 2.89184 0.909079 2.58666 1.0208 2.30149C1.13252 2.01632 1.30198 1.75733 1.51855 1.54076C1.73512 1.3242 1.99411 1.15474 2.27928 1.04302C2.56444 0.931296 2.86963 0.879727 3.17567 0.891548C3.48171 0.903369 3.78201 0.978322 4.05771 1.11171C4.33341 1.24509 4.57856 1.43403 4.77777 1.66665L21 17.8667L37.2 1.66665C37.6251 1.30259 38.1719 1.11236 38.7312 1.13396C39.2905 1.15557 39.821 1.38741 40.2168 1.78318C40.6126 2.17894 40.8444 2.70948 40.866 3.26876C40.8876 3.82804 40.6974 4.37487 40.3333 4.79999L24.1333 21Z" fill="#F8F8F8"/>
</svg>
